<?xml version="1.0" standalone="no"?>
<!DOCTYPE svg PUBLIC "-//W3C//DTD SVG 20010904//EN"
 "http://www.w3.org/TR/2001/REC-SVG-20010904/DTD/svg10.dtd">
<svg version="1.0" xmlns="http://www.w3.org/2000/svg"
 width="1273.000000pt" height="203.000000pt" viewBox="0 0 1273.000000 203.000000"
 preserveAspectRatio="xMidYMid meet">

<g transform="translate(0.000000,203.000000) scale(0.100000,-0.100000)"
fill="#FFFFFF" stroke="none">
<path d="M6855 1964 c-99 -48 -381 -161 -547 -219 -60 -21 -108 -41 -108 -44
0 -4 38 -44 85 -91 l85 -85 0 -63 c0 -57 -2 -63 -17 -56 -38 16 -258 16 -338
0 -266 -55 -453 -218 -542 -471 -26 -76 -28 -89 -27 -255 0 -163 2 -181 27
-255 91 -274 316 -432 583 -412 91 7 194 53 282 126 l62 52 0 -66 0 -65 370 0
370 0 0 49 0 48 -54 6 c-62 6 -98 26 -114 63 -9 18 -12 261 -12 904 0 484 -3
880 -7 879 -5 0 -48 -20 -98 -45z m-575 -741 c17 -16 39 -52 50 -84 51 -149
54 -625 3 -787 -30 -98 -99 -141 -176 -109 -75 32 -105 146 -114 427 -9 307
21 498 88 554 44 37 107 36 149 -1z"/>
<path d="M7845 1970 c-102 -50 -449 -188 -579 -230 l-98 -32 91 -92 91 -91 0
-630 c0 -580 -1 -633 -18 -665 -20 -41 -71 -70 -124 -70 l-38 0 0 -50 0 -50
475 0 475 0 0 49 0 48 -56 6 c-64 7 -101 27 -114 63 -6 15 -10 370 -10 905 0
483 -3 879 -7 878 -5 0 -44 -18 -88 -39z"/>
<path d="M3062 1975 c-128 -40 -208 -161 -200 -300 16 -250 301 -362 492 -194
89 78 116 227 62 341 -62 131 -215 197 -354 153z"/>
<path d="M668 1409 c-136 -69 -470 -205 -647 -265 -10 -3 13 -33 72 -92 l87
-87 0 -366 c0 -354 -1 -367 -20 -392 -21 -27 -74 -47 -122 -47 -27 0 -28 -2
-28 -50 l0 -50 380 0 379 0 3 488 c3 466 4 488 23 520 43 71 142 96 190 48 41
-41 45 -80 45 -479 0 -430 0 -433 -71 -461 -22 -9 -55 -16 -74 -16 l-35 0 0
-50 0 -50 475 0 475 0 0 49 0 48 -54 6 c-62 6 -98 26 -114 63 -9 17 -12 142
-12 417 0 374 1 394 20 425 39 64 127 92 179 56 50 -35 51 -47 51 -574 l0
-490 385 0 385 0 0 50 0 50 -35 0 c-50 0 -100 23 -122 56 -17 26 -18 64 -23
474 -5 440 -5 446 -29 505 -30 75 -105 151 -186 190 -52 25 -75 29 -171 33
-175 7 -290 -37 -418 -160 -39 -37 -71 -66 -72 -65 -1 1 -11 21 -23 45 -29 58
-91 116 -158 149 -47 22 -72 27 -163 31 -183 8 -291 -31 -416 -150 l-73 -70
-3 125 -3 125 -77 -39z"/>
<path d="M4328 1409 c-136 -69 -470 -205 -647 -265 -10 -3 13 -33 72 -92 l87
-87 0 -366 c0 -354 -1 -367 -20 -392 -21 -27 -74 -47 -122 -47 -27 0 -28 -2
-28 -50 l0 -50 470 0 470 0 0 49 0 48 -51 5 c-28 3 -62 14 -77 25 -50 37 -53
65 -50 468 3 352 4 372 24 405 59 101 193 108 240 13 18 -35 19 -72 22 -526
l3 -487 380 0 379 0 0 50 0 50 -35 0 c-50 0 -100 23 -122 56 -17 26 -18 64
-23 474 -5 435 -6 446 -28 502 -32 80 -99 151 -180 190 -61 29 -78 33 -178 36
-181 7 -309 -39 -434 -155 l-69 -64 -3 124 -3 125 -77 -39z"/>
<path d="M10338 1409 c-136 -69 -470 -205 -647 -265 -10 -3 13 -33 72 -92 l87
-87 0 -366 c0 -354 -1 -367 -20 -392 -21 -27 -74 -47 -122 -47 -27 0 -28 -2
-28 -50 l0 -50 470 0 470 0 0 49 0 48 -51 5 c-28 3 -62 14 -77 25 -50 37 -53
65 -50 468 3 352 4 372 24 405 59 101 193 108 240 13 18 -35 19 -72 22 -526
l3 -487 380 0 379 0 0 50 0 50 -35 0 c-50 0 -100 23 -122 56 -17 26 -18 64
-23 474 -5 435 -6 446 -28 502 -32 80 -99 151 -180 190 -61 29 -78 33 -178 36
-181 7 -309 -39 -434 -155 l-69 -64 -3 124 -3 125 -77 -39z"/>
<path d="M3300 1380 c-132 -60 -415 -172 -537 -211 -40 -12 -73 -28 -73 -34 0
-6 38 -48 85 -95 l85 -85 0 -345 c0 -308 -2 -349 -18 -380 -20 -41 -71 -70
-124 -70 l-38 0 0 -50 0 -50 475 0 475 0 0 49 0 48 -56 6 c-64 7 -101 27 -114
63 -6 15 -10 266 -10 620 0 469 -3 594 -12 593 -7 -1 -69 -27 -138 -59z"/>
<path d="M8670 1413 c-275 -53 -437 -187 -457 -377 -18 -176 139 -288 296
-210 38 19 62 40 82 73 29 45 29 46 23 161 -5 104 -4 118 15 147 42 67 111 87
184 55 71 -31 81 -60 82 -220 l0 -133 -150 -50 c-261 -86 -458 -196 -547 -305
-74 -91 -100 -236 -61 -349 22 -67 92 -135 169 -166 52 -21 75 -24 199 -23
125 0 148 2 211 25 97 35 175 89 237 165 l52 63 12 -42 c46 -153 162 -225 344
-215 148 9 262 78 315 192 20 43 24 67 24 154 l0 102 -55 0 -55 0 0 -91 c0
-50 -5 -99 -10 -110 -12 -22 -62 -26 -78 -6 -6 7 -12 153 -15 392 -4 410 -7
435 -63 531 -33 56 -120 136 -180 167 -114 58 -176 70 -369 73 -99 1 -191 0
-205 -3z m230 -835 c0 -117 -5 -230 -11 -251 -13 -47 -46 -69 -96 -65 -54 4
-73 45 -73 153 0 135 40 253 113 333 66 71 67 69 67 -170z"/>
<path d="M11945 1400 c-89 -23 -135 -43 -202 -86 -153 -98 -248 -237 -295
-433 -27 -114 -22 -312 10 -411 63 -191 219 -346 419 -414 110 -37 208 -50
346 -43 190 9 317 50 444 143 l53 39 0 63 0 62 -53 -29 c-74 -43 -175 -64
-266 -58 -141 11 -247 87 -323 234 -43 82 -74 180 -84 262 l-7 61 368 0 367 0
-7 78 c-27 291 -165 475 -401 537 -84 22 -279 19 -369 -5z m229 -174 c49 -20
70 -72 74 -182 4 -85 2 -93 -21 -120 -25 -28 -28 -29 -136 -32 l-111 -4 0 76
c0 142 32 224 100 258 42 22 51 22 94 4z"/>
</g>
</svg>